<svg width="16" height="16" viewBox="0 0 16 16" fill="none" xmlns="http://www.w3.org/2000/svg">
<path fill-rule="evenodd" clip-rule="evenodd" d="M2.9361 11.5157C2.25919 10.8388 2.25919 9.7413 2.9361 9.06439L8.59295 3.40753C8.74916 3.25132 9.00243 3.25132 9.15864 3.40753L11.9871 6.23596C12.1433 6.39217 12.1433 6.64544 11.9871 6.80165L6.33021 12.4585C5.6533 13.1354 4.55582 13.1354 3.87891 12.4585L2.9361 11.5157ZM3.50179 9.63007C3.1373 9.99456 3.1373 10.5855 3.50179 10.95L4.4446 11.8928C4.80908 12.2573 5.40004 12.2573 5.76453 11.8928L11.1385 6.5188L8.8758 4.25606L3.50179 9.63007Z" fill="#F4F6F7"/>
<path fill-rule="evenodd" clip-rule="evenodd" d="M7.65015 2.46472C7.80636 2.30851 8.05963 2.30851 8.21584 2.46472L12.9299 7.17876C13.0861 7.33497 13.0861 7.58824 12.9299 7.74445C12.7737 7.90066 12.5204 7.90066 12.3642 7.74445L7.65015 3.0304C7.49394 2.87419 7.49394 2.62093 7.65015 2.46472Z" fill="#F4F6F7"/>
<path fill-rule="evenodd" clip-rule="evenodd" d="M11.3838 1.48437C11.54 1.32816 11.7933 1.32816 11.9495 1.48437L13.9495 3.48437C14.1057 3.64058 14.1057 3.89385 13.9495 4.05005C13.7933 4.20626 13.54 4.20626 13.3838 4.05005L11.3838 2.05005C11.2276 1.89384 11.2276 1.64058 11.3838 1.48437Z" fill="#F4F6F7"/>
<path fill-rule="evenodd" clip-rule="evenodd" d="M5.93555 9.19495L4.93555 8.19495L5.50123 7.62926L6.50123 8.62926C6.65744 8.78547 6.65744 9.03874 6.50123 9.19495C6.34502 9.35116 6.09176 9.35116 5.93555 9.19495Z" fill="#F4F6F7"/>
<path fill-rule="evenodd" clip-rule="evenodd" d="M7.2688 7.86169L6.2688 6.86169L6.83448 6.29601L7.83448 7.29601C7.99069 7.45222 7.99069 7.70548 7.83448 7.86169C7.67827 8.0179 7.42501 8.0179 7.2688 7.86169Z" fill="#F4F6F7"/>
<path fill-rule="evenodd" clip-rule="evenodd" d="M8.60217 6.52832L7.60217 5.52832L8.16786 4.96263L9.16786 5.96263C9.32407 6.11884 9.32407 6.37211 9.16786 6.52832C9.01165 6.68453 8.75838 6.68453 8.60217 6.52832Z" fill="#F4F6F7"/>
<path fill-rule="evenodd" clip-rule="evenodd" d="M3.40748 8.59301C3.56369 8.4368 3.81695 8.4368 3.97316 8.59301L6.80159 11.4214C6.9578 11.5776 6.9578 11.8309 6.80159 11.9871C6.64538 12.1433 6.39211 12.1433 6.2359 11.9871L3.40748 9.1587C3.25127 9.00249 3.25127 8.74922 3.40748 8.59301Z" fill="#F4F6F7"/>
<path fill-rule="evenodd" clip-rule="evenodd" d="M12.9299 2.46472C13.0861 2.62093 13.0861 2.87419 12.9299 3.0304L10.5729 5.38742C10.4167 5.54363 10.1634 5.54363 10.0072 5.38742C9.85101 5.23121 9.85101 4.97795 10.0072 4.82174L12.3642 2.46472C12.5205 2.30851 12.7737 2.30851 12.9299 2.46472Z" fill="#F4F6F7"/>
<path fill-rule="evenodd" clip-rule="evenodd" d="M12.9299 2.46472C13.0861 2.62093 13.0861 2.87419 12.9299 3.0304L10.5729 5.38742C10.4167 5.54363 10.1634 5.54363 10.0072 5.38742C9.85101 5.23121 9.85101 4.97795 10.0072 4.82174L12.3642 2.46472C12.5205 2.30851 12.7737 2.30851 12.9299 2.46472Z" fill="#F4F6F7"/>
<path fill-rule="evenodd" clip-rule="evenodd" d="M3.97314 11.4215C4.12935 11.5777 4.12935 11.831 3.97314 11.9872L1.94946 14.0109C1.79325 14.1671 1.53998 14.1671 1.38377 14.0109C1.22756 13.8547 1.22756 13.6014 1.38377 13.4452L3.40745 11.4215C3.56366 11.2653 3.81693 11.2653 3.97314 11.4215Z" fill="#F4F6F7"/>
</svg>
