<svg width="24" height="25" viewBox="0 0 24 25" fill="none" xmlns="http://www.w3.org/2000/svg">
<path opacity="0.32" d="M9.25 1.75C6.44974 1.75 5.04961 1.75 3.98005 2.29497C3.03924 2.77433 2.27433 3.53924 1.79497 4.48005C1.25 5.54961 1.25 6.94974 1.25 9.75V15.25C1.25 18.0503 1.25 19.4504 1.79497 20.52C2.27433 21.4608 3.03924 22.2257 3.98005 22.705C5.04961 23.25 6.44974 23.25 9.25 23.25H14.75C17.5503 23.25 18.9504 23.25 20.02 22.705C20.9608 22.2257 21.7257 21.4608 22.205 20.52C22.75 19.4504 22.75 18.0503 22.75 15.25V9.75C22.75 6.94974 22.75 5.54961 22.205 4.48005C21.7257 3.53924 20.9608 2.77433 20.02 2.29497C18.9504 1.75 17.5503 1.75 14.75 1.75H9.25Z" fill="#1D7885"/>
<path d="M12.4697 7.96955C12.7626 7.67666 13.2374 7.67665 13.5303 7.96955L17.5303 11.9695C17.8232 12.2624 17.8231 12.7372 17.5303 13.0301L13.5303 17.0301C13.2374 17.323 12.7626 17.323 12.4697 17.0301C12.1769 16.7372 12.1768 16.2624 12.4697 15.9695L15.1895 13.2498H7C6.58579 13.2498 6.25 12.914 6.25 12.4998C6.25003 12.0856 6.58581 11.7498 7 11.7498H15.1895L12.4697 9.03009L12.418 8.97345C12.1777 8.67887 12.1951 8.24415 12.4697 7.96955Z" fill="#1D7885"/>
</svg>
