<svg width="25" height="24" viewBox="0 0 25 24" fill="none" xmlns="http://www.w3.org/2000/svg">
<path d="M8.5 19.5455C9.1586 21.0273 10.8784 22 12.5 22C14.1216 22 15.8414 21.0273 16.5 19.5455M18.5 11.1902V8C18.5 4.68629 15.8137 2 12.5 2V2C9.18629 2 6.5 4.68629 6.5 8V11.1902C6.5 12.0239 6.14615 12.8185 5.52647 13.3762L4.41854 14.3733C3.09604 15.5636 3.51797 17.7338 5.19009 18.3419L5.40109 18.4186C9.98681 20.0861 15.0132 20.0861 19.5989 18.4186L19.8099 18.3419C21.482 17.7338 21.904 15.5636 20.5815 14.3733L19.4735 13.3762C18.8539 12.8185 18.5 12.0239 18.5 11.1902Z" stroke="#929090" stroke-width="1.5" stroke-linecap="round" stroke-linejoin="round"/>
</svg>
