<svg width="20" height="21" viewBox="0 0 20 21" fill="none" xmlns="http://www.w3.org/2000/svg">
<path d="M9.99996 15.5C12.0223 14.2 13.5538 13.8464 15.6664 13.7502C16.6422 13.7058 17.1301 13.6836 17.4702 13.4965C17.7785 13.3268 18.0063 13.0884 18.1618 12.7726C18.3333 12.4244 18.3333 11.9655 18.3333 11.0476V2.16669C14.6296 2.16669 12.7777 2.16669 9.99996 3.9524M9.99996 15.5C7.97766 14.2 6.44613 13.8464 4.33349 13.7502C3.35769 13.7058 2.86978 13.6836 2.52975 13.4965C2.22139 13.3268 1.99359 13.0884 1.83809 12.7726C1.66663 12.4244 1.66663 11.9655 1.66663 11.0476V2.16669C5.37033 2.16669 7.22218 2.16669 9.99996 3.9524M9.99996 15.5V3.9524M17.5 16.75C14.1666 16.75 12.5 17.1667 9.99996 18.8334C7.49996 17.1667 5.83329 16.75 2.49996 16.75" stroke="#929090" stroke-width="1.25" stroke-linecap="round" stroke-linejoin="round"/>
</svg>
