<svg width="25" height="24" viewBox="0 0 25 24" fill="none" xmlns="http://www.w3.org/2000/svg">
<path d="M21.5 18.7503C21.9142 18.7503 22.25 19.0861 22.25 19.5003C22.2498 19.9143 21.9141 20.2503 21.5 20.2503C19.5262 20.2503 18.1031 20.3746 16.8223 20.7239C15.5494 21.0711 14.3737 21.6525 12.916 22.6243C12.6642 22.7921 12.3358 22.7921 12.084 22.6243C10.6263 21.6525 9.45056 21.0711 8.17773 20.7239C6.89694 20.3746 5.47376 20.2503 3.5 20.2503C3.08591 20.2503 2.75019 19.9143 2.75 19.5003C2.75 19.0861 3.08579 18.7503 3.5 18.7503C5.52619 18.7503 7.10308 18.876 8.57227 19.2766C9.91508 19.6429 11.1312 20.2298 12.5 21.1057C13.8688 20.2298 15.0849 19.6429 16.4277 19.2766C17.8969 18.876 19.4738 18.7503 21.5 18.7503ZM21.6504 1.24245C22.212 1.24471 22.4931 1.24571 22.7061 1.35476C22.8939 1.45116 23.046 1.60398 23.1416 1.79226C23.2499 2.00569 23.25 2.28714 23.25 2.84987V11.8069C23.25 13.3973 23.2497 14.1925 22.96 14.803C22.6883 15.3753 22.3285 15.771 21.7842 16.095C21.2035 16.4404 20.2866 16.5269 18.4531 16.6995C18.0378 16.7386 17.624 16.7915 17.2129 16.8635C15.7943 17.1123 14.4979 17.6073 12.9053 18.6311L12.5 18.8919L12.0947 18.6311C10.5021 17.6073 9.20567 17.1123 7.78711 16.8635C7.37603 16.7915 6.96224 16.7386 6.54688 16.6995C4.71341 16.5269 3.79647 16.4404 3.21582 16.095C2.67146 15.771 2.31165 15.3753 2.04004 14.803C1.75034 14.1925 1.75 13.3973 1.75 11.8069V2.84987C1.75 2.28714 1.75013 2.00569 1.8584 1.79226C1.95404 1.60398 2.10605 1.45116 2.29395 1.35476C2.50688 1.24571 2.78797 1.24471 3.34961 1.24245C4.92159 1.23613 6.4998 1.25755 8.0459 1.52858C8.40165 1.59096 8.75037 1.66769 9.0957 1.76003C9.7662 1.93931 10.1016 2.02877 10.5752 2.39187C10.9184 2.65503 11.3559 3.22473 11.5215 3.62429C11.75 4.17578 11.75 4.68241 11.75 5.69558V10.0003C11.7502 10.4143 12.0859 10.7503 12.5 10.7503C12.9141 10.7503 13.2498 10.4143 13.25 10.0003V5.69558C13.25 4.68242 13.25 4.17578 13.4785 3.62429C13.6441 3.22473 14.0816 2.65503 14.4248 2.39187C14.8984 2.02877 15.2338 1.93931 15.9043 1.76003C16.2496 1.66769 16.5984 1.59096 16.9541 1.52858C18.5002 1.25755 20.0784 1.23613 21.6504 1.24245Z" fill="#1D7885"/>
</svg>
