<svg width="20" height="20" viewBox="0 0 20 20" fill="none" xmlns="http://www.w3.org/2000/svg">
<path d="M16.6667 18.3333V8.33329C16.6667 6.78334 16.6667 6.00836 16.4963 5.37253C16.034 3.64707 14.6862 2.29933 12.9608 1.837C12.3249 1.66663 11.55 1.66663 10 1.66663C8.45006 1.66663 7.67508 1.66663 7.03925 1.837C5.31379 2.29933 3.96605 3.64707 3.50371 5.37253C3.33334 6.00836 3.33334 6.78334 3.33334 8.3333V18.3333L4.27567 17.8621C6.37459 16.8127 7.42405 16.2879 8.52483 16.0814C9.49978 15.8985 10.5002 15.8985 11.4752 16.0814C12.576 16.2879 13.6254 16.8127 15.7243 17.8621L16.6667 18.3333Z" stroke="white" stroke-width="1.5" stroke-linecap="round" stroke-linejoin="round"/>
</svg>
