<svg width="16" height="16" viewBox="0 0 16 16" fill="none" xmlns="http://www.w3.org/2000/svg">
<path fill-rule="evenodd" clip-rule="evenodd" d="M10.0215 8.58361C10.4792 8.1727 11.0853 7.92224 11.749 7.92224C13.1777 7.92224 14.3359 9.08042 14.3359 10.5091V13.0009C14.3359 13.2218 14.1568 13.4009 13.9359 13.4009H10.8735C10.6526 13.4009 10.4735 13.2218 10.4735 13.0009C10.4735 12.78 10.6526 12.6009 10.8735 12.6009H13.5359V10.5091C13.5359 9.52225 12.7359 8.72224 11.749 8.72224C11.2902 8.72224 10.8725 8.89468 10.5559 9.17892C10.3915 9.3265 10.1386 9.31286 9.99102 9.14847C9.84344 8.98408 9.85708 8.73118 10.0215 8.58361Z" fill="#F4F6F7"/>
<path fill-rule="evenodd" clip-rule="evenodd" d="M1.66418 9.85545C1.66418 8.42675 2.82238 7.26855 4.25109 7.26855C5.13772 7.26855 5.91998 7.71496 6.38548 8.39344C6.51046 8.5756 6.46411 8.82459 6.28194 8.94957C6.09978 9.07455 5.8508 9.0282 5.72582 8.84603C5.40312 8.3757 4.86292 8.06855 4.25109 8.06855C3.26421 8.06855 2.46418 8.86858 2.46418 9.85545V12.601H5.17059C5.3915 12.601 5.57059 12.7801 5.57059 13.001C5.57059 13.2219 5.3915 13.401 5.17059 13.401H2.06418C1.84327 13.401 1.66418 13.2219 1.66418 13.001V9.85545Z" fill="#F4F6F7"/>
<path fill-rule="evenodd" clip-rule="evenodd" d="M11.6668 4.07344C10.9672 4.07344 10.4001 4.64054 10.4001 5.3401C10.4001 6.03966 10.9672 6.60677 11.6668 6.60677C12.3663 6.60677 12.9334 6.03966 12.9334 5.3401C12.9334 4.64054 12.3663 4.07344 11.6668 4.07344ZM9.6001 5.3401C9.6001 4.19872 10.5254 3.27344 11.6668 3.27344C12.8082 3.27344 13.7334 4.19872 13.7334 5.3401C13.7334 6.48149 12.8082 7.40677 11.6668 7.40677C10.5254 7.40677 9.6001 6.48149 9.6001 5.3401Z" fill="#F4F6F7"/>
<path fill-rule="evenodd" clip-rule="evenodd" d="M4.23024 3.399C3.53068 3.399 2.96357 3.9661 2.96357 4.66567C2.96357 5.36523 3.53068 5.93233 4.23024 5.93233C4.9298 5.93233 5.49691 5.36523 5.49691 4.66567C5.49691 3.9661 4.9298 3.399 4.23024 3.399ZM2.16357 4.66567C2.16357 3.52428 3.08885 2.599 4.23024 2.599C5.37163 2.599 6.29691 3.52428 6.29691 4.66567C6.29691 5.80705 5.37163 6.73233 4.23024 6.73233C3.08885 6.73233 2.16357 5.80705 2.16357 4.66567Z" fill="#F4F6F7"/>
<path fill-rule="evenodd" clip-rule="evenodd" d="M7.98842 6.28682C7.565 6.28682 7.22175 6.63006 7.22175 7.05348C7.22175 7.4769 7.565 7.82015 7.98842 7.82015C8.41184 7.82015 8.75509 7.4769 8.75509 7.05348C8.75509 6.63006 8.41184 6.28682 7.98842 6.28682ZM6.42175 7.05348C6.42175 6.18824 7.12317 5.48682 7.98842 5.48682C8.85367 5.48682 9.55509 6.18824 9.55509 7.05348C9.55509 7.91873 8.85367 8.62015 7.98842 8.62015C7.12317 8.62015 6.42175 7.91873 6.42175 7.05348Z" fill="#F4F6F7"/>
<path fill-rule="evenodd" clip-rule="evenodd" d="M6.03796 10.8141C6.03796 9.7305 6.91641 8.85205 8.00003 8.85205C9.08365 8.85205 9.9621 9.7305 9.9621 10.8141V13.001C9.9621 13.2219 9.78301 13.401 9.5621 13.401H6.43796C6.21705 13.401 6.03796 13.2219 6.03796 13.001V10.8141ZM8.00003 9.65205C7.35824 9.65205 6.83796 10.1723 6.83796 10.8141V12.601H9.1621V10.8141C9.1621 10.1723 8.64182 9.65205 8.00003 9.65205Z" fill="#F4F6F7"/>
</svg>
