<svg width="20" height="21" viewBox="0 0 20 21" fill="none" xmlns="http://www.w3.org/2000/svg">
<path d="M11.6667 2.58335V4.50005C11.6667 5.43347 11.6667 5.90018 11.8484 6.2567C12.0082 6.5703 12.2631 6.82527 12.5767 6.98506C12.9332 7.16671 13.4 7.16671 14.3334 7.16671H16.25M7.50004 10.5H12.5M7.50004 13.8334H10.8334M16.6667 9.09478V12.1667C16.6667 14.5002 16.6667 15.667 16.2126 16.5583C15.8131 17.3423 15.1757 17.9797 14.3917 18.3792C13.5004 18.8334 12.3336 18.8334 10 18.8334V18.8334C7.66649 18.8334 6.49971 18.8334 5.60841 18.3792C4.8244 17.9797 4.18699 17.3423 3.78751 16.5583C3.33337 15.667 3.33337 14.5002 3.33337 12.1667V8.6485C3.33337 6.48916 3.33337 5.40949 3.72387 4.57221C4.13784 3.68458 4.85127 2.97116 5.7389 2.55718C6.57618 2.16669 7.65585 2.16669 9.81519 2.16669V2.16669C10.7588 2.16669 11.2305 2.16669 11.6761 2.26548C12.1505 2.37068 12.6029 2.55806 13.0128 2.81915C13.3977 3.06436 13.7313 3.39796 14.3985 4.06516L14.7141 4.38073C15.4347 5.10136 15.795 5.46168 16.0527 5.88217C16.2812 6.25497 16.4495 6.6614 16.5516 7.08655C16.6667 7.56609 16.6667 8.07565 16.6667 9.09478Z" stroke="#929090" stroke-width="1.25" stroke-linecap="round" stroke-linejoin="round"/>
</svg>
