<svg width="23" height="20" viewBox="0 0 23 20" fill="none" xmlns="http://www.w3.org/2000/svg">
<path d="M7.69363 12.7914C4.93602 12.7914 2.70171 10.454 2.69583 7.57669C2.69583 4.69939 4.93602 2.3681 7.69363 2.36196H10.5394V0H7.69363C3.68363 0 0.438009 3.39264 0.432129 7.57669C0.432129 11.7607 3.68363 15.1472 7.69363 15.1534H10.5394V12.7914H7.69363Z" fill="white"/>
<path d="M14.993 0H12.1472V2.3681H14.993C17.7506 2.3681 19.9849 4.69939 19.9908 7.57669C19.9908 10.454 17.7506 12.7853 14.993 12.7914H12.1472V15.1534V20L14.8166 15.1534H14.9871C18.9971 15.1534 22.2428 11.7607 22.2486 7.57669C22.2486 3.39264 18.9971 0.00613497 14.9871 0" fill="white"/>
</svg>
