<svg width="16" height="16" viewBox="0 0 16 16" fill="none" xmlns="http://www.w3.org/2000/svg">
<path fill-rule="evenodd" clip-rule="evenodd" d="M9.66666 1.98938C9.88758 1.98938 10.0667 2.16847 10.0667 2.38938V2.94422C10.0667 3.16513 9.88758 3.34422 9.66666 3.34422C9.44575 3.34422 9.26666 3.16513 9.26666 2.94422V2.38938C9.26666 2.16847 9.44575 1.98938 9.66666 1.98938Z" fill="#F4F6F7"/>
<path fill-rule="evenodd" clip-rule="evenodd" d="M12.3333 1.98938C12.5543 1.98938 12.7333 2.16847 12.7333 2.38938V2.94422C12.7333 3.16513 12.5543 3.34422 12.3333 3.34422C12.1124 3.34422 11.9333 3.16513 11.9333 2.94422V2.38938C11.9333 2.16847 12.1124 1.98938 12.3333 1.98938Z" fill="#F4F6F7"/>
<path fill-rule="evenodd" clip-rule="evenodd" d="M3.66667 8.86671C4.14531 8.86671 4.53333 8.47869 4.53333 8.00004C4.53333 7.52139 4.14531 7.13337 3.66667 7.13337C3.18802 7.13337 2.8 7.52139 2.8 8.00004C2.8 8.47869 3.18802 8.86671 3.66667 8.86671ZM3.66667 9.66671C4.58714 9.66671 5.33333 8.92052 5.33333 8.00004C5.33333 7.07957 4.58714 6.33337 3.66667 6.33337C2.74619 6.33337 2 7.07957 2 8.00004C2 8.92052 2.74619 9.66671 3.66667 9.66671Z" fill="#F4F6F7"/>
<path fill-rule="evenodd" clip-rule="evenodd" d="M11 7.59631C11.2209 7.59631 11.4 7.7754 11.4 7.99631V11.2507C11.4 12.7717 10.167 14.0047 8.64601 14.0047C7.12504 14.0047 5.89205 12.7717 5.89205 11.2507V9.41052C5.89205 8.85047 5.43804 8.39646 4.87799 8.39646V7.59646C5.87987 7.59646 6.69205 8.40865 6.69205 9.41052V11.2507C6.69205 12.3298 7.56687 13.2047 8.64601 13.2047C9.72516 13.2047 10.6 12.3298 10.6 11.2507V7.99631C10.6 7.7754 10.7791 7.59631 11 7.59631Z" fill="#F4F6F7"/>
<path fill-rule="evenodd" clip-rule="evenodd" d="M9.07686 3.06672C8.92958 3.06672 8.81019 3.18611 8.81019 3.33339V3.52124C8.81019 5.08011 9.57822 6.53891 10.8634 7.42114C10.9457 7.47762 11.0543 7.47762 11.1365 7.42114C12.4217 6.53891 13.1898 5.08011 13.1898 3.52124V3.33339C13.1898 3.18611 13.0704 3.06672 12.9231 3.06672H12.1099V2.26672H12.9231C13.5122 2.26672 13.9898 2.74429 13.9898 3.33339V3.52124C13.9898 5.34375 13.0919 7.04926 11.5893 8.0807C11.2342 8.32444 10.7657 8.32444 10.4107 8.0807C8.90811 7.04926 8.01019 5.34375 8.01019 3.52124V3.33339C8.01019 2.74429 8.48776 2.26672 9.07686 2.26672H9.89008V3.06672H9.07686Z" fill="#F4F6F7"/>
</svg>
