<svg width="16" height="16" viewBox="0 0 16 16" fill="none" xmlns="http://www.w3.org/2000/svg">
<path fill-rule="evenodd" clip-rule="evenodd" d="M10.324 2.14647C11.5656 2.27441 12.534 3.32365 12.534 4.59907V6.83064C11.8978 6.5852 11.2218 6.4593 10.5399 6.4593H10.4203C10.3671 6.4593 10.324 6.4162 10.324 6.36304V2.14647ZM10.0683 1.33337C11.8719 1.33337 13.334 2.79547 13.334 4.59907V6.84524C13.334 7.40088 12.7756 7.7829 12.2577 7.58153C11.71 7.36857 11.1275 7.2593 10.5399 7.2593H10.4203C9.92528 7.2593 9.52401 6.85803 9.52401 6.36304V1.87766C9.52401 1.57706 9.7677 1.33337 10.0683 1.33337Z" fill="#F4F6F7"/>
<path fill-rule="evenodd" clip-rule="evenodd" d="M5.67599 2.14647C4.43438 2.27441 3.46602 3.32365 3.46602 4.59907V6.83064C4.10216 6.5852 4.7782 6.4593 5.46013 6.4593H5.57973C5.63289 6.4593 5.67599 6.4162 5.67599 6.36304V2.14647ZM5.93171 1.33337C4.12811 1.33337 2.66602 2.79547 2.66602 4.59907V6.84524C2.66602 7.40088 3.22445 7.7829 3.74232 7.58153C4.29 7.36857 4.8725 7.2593 5.46013 7.2593H5.57973C6.07472 7.2593 6.47599 6.85803 6.47599 6.36304V1.87766C6.47599 1.57706 6.2323 1.33337 5.93171 1.33337Z" fill="#F4F6F7"/>
<path fill-rule="evenodd" clip-rule="evenodd" d="M7.99961 1.33057C8.22052 1.33057 8.39961 1.50965 8.39961 1.73057V7.36049C8.39961 7.58141 8.22052 7.76049 7.99961 7.76049C7.7787 7.76049 7.59961 7.58141 7.59961 7.36049V1.73057C7.59961 1.50965 7.7787 1.33057 7.99961 1.33057Z" fill="#F4F6F7"/>
<path fill-rule="evenodd" clip-rule="evenodd" d="M10.2986 3.73538C10.2606 3.95299 10.0533 4.09853 9.83568 4.06045L7.99964 3.73918L6.16359 4.06045C5.94599 4.09853 5.73871 3.95299 5.70064 3.73538C5.66256 3.51778 5.8081 3.3105 6.0257 3.27243L7.93069 2.93909C7.97631 2.93111 8.02296 2.93111 8.06858 2.93909L9.97357 3.27242C10.1912 3.3105 10.3367 3.51777 10.2986 3.73538Z" fill="#F4F6F7"/>
<path fill-rule="evenodd" clip-rule="evenodd" d="M4.37627 11.1242C4.3811 10.1178 5.19788 9.29407 6.20883 9.29407V10.0941C5.64279 10.0941 5.179 10.5574 5.17626 11.128C5.17347 11.7096 5.64462 12.1849 6.22162 12.1849H10.0242C10.7096 12.1849 11.2652 12.7405 11.2652 13.4259C11.2652 14.1113 10.7096 14.667 10.0242 14.667H4.76926C4.54835 14.667 4.36926 14.4879 4.36926 14.267C4.36926 14.0461 4.54835 13.867 4.76926 13.867H10.0242C10.2678 13.867 10.4652 13.6695 10.4652 13.4259C10.4652 13.1823 10.2678 12.9849 10.0242 12.9849H6.22162C5.19665 12.9849 4.37137 12.1445 4.37627 11.1242Z" fill="#F4F6F7"/>
<path fill-rule="evenodd" clip-rule="evenodd" d="M9.60594 8.5906C9.40289 8.59239 9.2518 8.62632 9.17233 8.6629C8.93452 8.77239 8.82647 8.85691 8.75032 8.94183C8.6654 9.03651 8.60177 9.1491 8.47527 9.3729C8.47032 9.38166 8.46528 9.39058 8.46013 9.39968C8.31784 9.65133 8.1394 9.83429 7.92841 9.95418C7.71972 10.0728 7.50467 10.1151 7.31078 10.1259C7.1219 10.1364 6.93673 10.1171 6.79101 10.1018C6.77637 10.1003 6.76215 10.0988 6.74835 10.0974C6.75364 10.1308 6.76278 10.1603 6.77408 10.1866C6.81329 10.2782 6.89949 10.3793 7.05887 10.4753C7.38579 10.6722 7.92424 10.7873 8.52769 10.7687C9.12576 10.7504 9.72359 10.6023 10.1578 10.3398C10.5836 10.0823 10.8192 9.74097 10.8192 9.30887C10.8192 9.02865 10.622 8.80983 10.2143 8.68007C10.0186 8.61779 9.80295 8.58886 9.60594 8.5906ZM10.4569 7.91775C11.0073 8.09293 11.6192 8.51594 11.6192 9.30887C11.6192 10.0988 11.1621 10.6674 10.5718 11.0244C9.98984 11.3762 9.24805 11.547 8.55227 11.5684C7.86187 11.5896 7.15225 11.4654 6.64611 11.1606C6.38897 11.0057 6.16239 10.7903 6.03874 10.5017C5.91177 10.2054 5.91295 9.87739 6.034 9.54346C6.08859 9.39289 6.22773 9.28939 6.38764 9.28041C6.54618 9.27151 6.71361 9.2892 6.84795 9.30339C6.8569 9.30433 6.86571 9.30527 6.87436 9.30617C7.02675 9.32213 7.1508 9.33352 7.26653 9.32711C7.37726 9.32098 7.46221 9.29895 7.53319 9.25862C7.60187 9.2196 7.68276 9.14915 7.76375 9.00592C7.77431 8.98724 7.78482 8.96856 7.79532 8.94989C7.90267 8.75912 8.00892 8.57031 8.15473 8.40772C8.32688 8.21575 8.53778 8.07433 8.83778 7.93622C9.05625 7.83564 9.33091 7.79299 9.59889 7.79063C9.8729 7.78822 10.1735 7.82755 10.4569 7.91775Z" fill="#F4F6F7"/>
</svg>
