<svg width="16" height="17" viewBox="0 0 16 17" fill="none" xmlns="http://www.w3.org/2000/svg">
<path d="M4.66667 5.83331V5.03331C4.66667 3.91321 4.66667 3.35316 4.88465 2.92533C5.0764 2.54901 5.38236 2.24305 5.75869 2.0513C6.18651 1.83331 6.74656 1.83331 7.86667 1.83331H8.13333C9.25344 1.83331 9.81349 1.83331 10.2413 2.0513C10.6176 2.24305 10.9236 2.54901 11.1153 2.92533C11.3333 3.35316 11.3333 3.91321 11.3333 5.03331V5.83331M8 9.83331V11.1666M6.26667 15.1666H9.73333C11.2268 15.1666 11.9735 15.1666 12.544 14.876C13.0457 14.6203 13.4537 14.2124 13.7094 13.7106C14 13.1402 14 12.3935 14 10.9V10.1C14 8.60651 14 7.85977 13.7094 7.28934C13.4537 6.78757 13.0457 6.37962 12.544 6.12396C11.9735 5.83331 11.2268 5.83331 9.73333 5.83331H6.26667C4.77319 5.83331 4.02646 5.83331 3.45603 6.12396C2.95426 6.37962 2.54631 6.78757 2.29065 7.28934C2 7.85977 2 8.60651 2 10.1V10.9C2 12.3935 2 13.1402 2.29065 13.7106C2.54631 14.2124 2.95426 14.6203 3.45603 14.876C4.02646 15.1666 4.77319 15.1666 6.26667 15.1666Z" stroke="#737171" stroke-linecap="round"/>
</svg>
