<svg width="48" height="48" viewBox="0 0 48 48" fill="none" xmlns="http://www.w3.org/2000/svg">
<rect width="48" height="48" fill="white"/>
<path d="M32.3363 5.70508C33.1201 5.85327 33.9129 5.966 34.6867 6.15964C40.552 7.59879 44.9371 12.6035 45.6127 18.6083C46.048 22.3849 44.9894 26.182 42.6628 29.1886C40.3363 32.1953 36.9262 34.1732 33.161 34.6999C32.5462 34.7841 31.9258 34.8212 31.3053 34.8108C30.9225 34.8108 30.7143 34.9263 30.5243 35.259C28.9313 38.0537 27.3193 40.8383 25.7127 43.623C25.6454 43.7394 25.5754 43.853 25.4472 44.0676V30.2943H25.9118C27.6981 30.2943 29.4863 30.2943 31.2762 30.2943C36.1723 30.287 40.5347 26.3959 41.0839 21.5476C41.7067 16.0419 38.0835 11.2517 32.6082 10.358C32.1296 10.2837 31.646 10.2467 31.1616 10.2471C29.2705 10.2353 27.3793 10.2425 25.4336 10.2425V5.70508H32.3363Z" fill="#E2504B"/>
<path d="M22.1577 5.70508V10.2425H16.457C11.3008 10.2425 6.87113 14.2354 6.43652 19.2729C5.98192 24.5313 9.46602 29.1651 14.604 30.1161C15.199 30.2245 15.8022 30.2814 16.4069 30.2861C18.2981 30.3079 20.1893 30.2943 22.1204 30.2943V34.7608C22.0986 34.7808 22.0877 34.8008 22.0768 34.7999C19.2228 34.7463 16.3488 35.0881 13.5166 34.539C7.47666 33.368 2.74876 28.2987 1.9732 22.1912C0.978519 14.3954 6.18467 7.30151 13.9166 5.91781C14.3603 5.83872 14.8067 5.77599 15.2513 5.70508H22.1577Z" fill="#E2504B"/>
</svg>
