<svg width="20" height="20" viewBox="0 0 20 20" fill="none" xmlns="http://www.w3.org/2000/svg">
<path d="M5.83329 6.66663H14.1666M5.83329 9.99996H14.1666M5.83329 13.3333H14.1666M9.66663 18.3333H10.3333C13.1336 18.3333 14.5337 18.3333 15.6032 17.7883C16.5441 17.309 17.309 16.5441 17.7883 15.6032C18.3333 14.5337 18.3333 13.1336 18.3333 10.3333V9.66663C18.3333 6.86636 18.3333 5.46623 17.7883 4.39667C17.309 3.45586 16.5441 2.69096 15.6032 2.21159C14.5337 1.66663 13.1336 1.66663 10.3333 1.66663H9.66663C6.86636 1.66663 5.46623 1.66663 4.39667 2.21159C3.45586 2.69096 2.69096 3.45586 2.21159 4.39667C1.66663 5.46623 1.66663 6.86636 1.66663 9.66663V10.3333C1.66663 13.1336 1.66663 14.5337 2.21159 15.6032C2.69096 16.5441 3.45586 17.309 4.39667 17.7883C5.46623 18.3333 6.86636 18.3333 9.66663 18.3333Z" stroke="#444242" stroke-width="1.25" stroke-linecap="round" stroke-linejoin="round"/>
</svg>
