<svg width="20" height="21" viewBox="0 0 20 21" fill="none" xmlns="http://www.w3.org/2000/svg">
<path d="M5.83335 7.16663H14.1667M5.83335 10.5H14.1667M5.83335 13.8333H14.1667M9.66669 18.8333H10.3334C13.1336 18.8333 14.5337 18.8333 15.6033 18.2883C16.5441 17.809 17.309 17.0441 17.7884 16.1032C18.3334 15.0337 18.3334 13.6336 18.3334 10.8333V10.1666C18.3334 7.36636 18.3334 5.96623 17.7884 4.89667C17.309 3.95586 16.5441 3.19096 15.6033 2.71159C14.5337 2.16663 13.1336 2.16663 10.3334 2.16663H9.66669C6.86642 2.16663 5.46629 2.16663 4.39673 2.71159C3.45592 3.19096 2.69102 3.95586 2.21165 4.89667C1.66669 5.96623 1.66669 7.36636 1.66669 10.1666V10.8333C1.66669 13.6336 1.66669 15.0337 2.21165 16.1032C2.69102 17.0441 3.45592 17.809 4.39673 18.2883C5.46629 18.8333 6.86643 18.8333 9.66669 18.8333Z" stroke="#1D7885" stroke-width="1.25" stroke-linecap="round" stroke-linejoin="round"/>
</svg>
