<svg width="24" height="24" viewBox="0 0 24 24" fill="none" xmlns="http://www.w3.org/2000/svg">
<path d="M16 5.00012C16 6.65698 17.3431 8.00012 19 8.00012C20.6569 8.00012 22 6.65698 22 5.00012C22 3.34327 20.6569 2.00012 19 2.00012C17.3431 2.00012 16 3.34327 16 5.00012ZM16 5.00012H9C6.79086 5.00012 5 6.79098 5 9.00012V9.00012M5 15.0001C3.34315 15.0001 2 13.657 2 12.0001C2 10.3433 3.34315 9.00012 5 9.00012M5 15.0001C6.65685 15.0001 8 13.657 8 12.0001C8 10.3433 6.65685 9.00012 5 9.00012M5 15.0001V15.0001C5 17.2093 6.79086 19.0001 9 19.0001H16M16 19.0001C16 20.657 17.3431 22.0001 19 22.0001C20.6569 22.0001 22 20.657 22 19.0001C22 17.3433 20.6569 16.0001 19 16.0001C17.3431 16.0001 16 17.3433 16 19.0001Z" stroke="white" stroke-width="1.5" stroke-linecap="round" stroke-linejoin="round"/>
</svg>
