<svg width="13" height="13" viewBox="0 0 13 13" fill="none" xmlns="http://www.w3.org/2000/svg">
<path d="M6.20637 0.346617C6.43176 0.151063 6.76667 0.151063 6.99207 0.346616L7.81254 1.05845C7.95161 1.17911 8.13843 1.22917 8.31921 1.19421L9.38567 0.987979C9.67864 0.931323 9.96868 1.09878 10.0661 1.38083L10.4207 2.40753C10.4808 2.58157 10.6176 2.71832 10.7916 2.77844L11.8183 3.13306C12.1004 3.23049 12.2678 3.52053 12.2112 3.8135L12.005 4.87996C11.97 5.06074 12.0201 5.24756 12.1407 5.38663L12.8526 6.2071C13.0481 6.4325 13.0481 6.76741 12.8526 6.9928L12.1407 7.81327C12.0201 7.95235 11.97 8.13916 12.005 8.31994L12.2112 9.3864C12.2678 9.67938 12.1004 9.96942 11.8183 10.0668L10.7916 10.4215C10.6176 10.4816 10.4808 10.6183 10.4207 10.7924L10.0661 11.8191C9.96868 12.1011 9.67864 12.2686 9.38567 12.2119L8.31921 12.0057C8.13843 11.9707 7.95161 12.0208 7.81254 12.1415L6.99207 12.8533C6.76667 13.0488 6.43177 13.0488 6.20637 12.8533L5.3859 12.1415C5.24682 12.0208 5.06001 11.9707 4.87923 12.0057L3.81277 12.2119C3.51979 12.2686 3.22975 12.1011 3.13233 11.8191L2.7777 10.7924C2.71759 10.6183 2.58083 10.4816 2.4068 10.4215L1.3801 10.0668C1.09804 9.96942 0.93059 9.67938 0.987246 9.3864L1.19348 8.31994C1.22844 8.13916 1.17838 7.95235 1.05772 7.81327L0.345884 6.9928C0.15033 6.76741 0.15033 6.4325 0.345884 6.2071L1.05772 5.38663C1.17838 5.24756 1.22844 5.06074 1.19348 4.87996L0.987246 3.8135C0.93059 3.52053 1.09804 3.23049 1.3801 3.13306L2.4068 2.77844C2.58083 2.71832 2.71759 2.58157 2.7777 2.40753L3.13233 1.38083C3.22975 1.09878 3.51979 0.931323 3.81277 0.987979L4.87923 1.19421C5.06001 1.22917 5.24682 1.17911 5.3859 1.05845L6.20637 0.346617Z" fill="#27AE60"/>
</svg>
