<svg width="14" height="13" viewBox="0 0 14 13" fill="none" xmlns="http://www.w3.org/2000/svg">
<path d="M5.48221 2.64171C5.97073 1.66466 6.21499 1.17614 6.54553 1.01938C6.83317 0.882955 7.16688 0.882955 7.45452 1.01938C7.78505 1.17614 8.02931 1.66467 8.51784 2.64171L8.70837 3.02277C8.8592 3.32444 8.93462 3.47528 9.04496 3.59077C9.14263 3.693 9.25975 3.77467 9.38944 3.83097C9.53595 3.89458 9.70356 3.91321 10.0388 3.95045L10.2117 3.96967C11.3828 4.09979 11.9683 4.16484 12.2329 4.43481C12.4628 4.66942 12.5711 4.99735 12.526 5.32275C12.4742 5.6972 12.0425 6.09806 11.1791 6.89979L10.9964 7.06935C10.7017 7.34302 10.5544 7.47986 10.4692 7.64567C10.3939 7.79224 10.3538 7.95432 10.3521 8.11907C10.3502 8.30547 10.4176 8.49772 10.5525 8.8822V8.8822C10.9929 10.1372 11.213 10.7647 11.069 11.1316C10.9441 11.4498 10.6734 11.6883 10.342 11.7722C9.95997 11.8689 9.37405 11.5759 8.20222 10.99L7.75893 10.7684C7.48066 10.6292 7.34153 10.5597 7.1956 10.5323C7.06634 10.508 6.9337 10.508 6.80445 10.5323C6.65851 10.5597 6.51938 10.6292 6.24111 10.7684L5.79782 10.99C4.62599 11.5759 4.04007 11.8689 3.658 11.7722C3.3266 11.6883 3.05595 11.4498 2.93102 11.1316C2.78699 10.7647 3.00717 10.1372 3.44753 8.8822V8.8822C3.58243 8.49772 3.64989 8.30547 3.64793 8.11907C3.6462 7.95432 3.6061 7.79224 3.53083 7.64567C3.44567 7.47986 3.29831 7.34302 3.00359 7.06935L2.82098 6.89979C1.95758 6.09806 1.52588 5.6972 1.47401 5.32275C1.42894 4.99735 1.53719 4.66942 1.76714 4.43481C2.03175 4.16484 2.61726 4.09979 3.78829 3.96967L3.96126 3.95045C4.29648 3.91321 4.46409 3.89458 4.6106 3.83097C4.74029 3.77467 4.85741 3.693 4.95508 3.59077C5.06542 3.47528 5.14084 3.32445 5.29167 3.02277L5.48221 2.64171Z" fill="#1D7885"/>
</svg>
