<svg width="20" height="20" viewBox="0 0 20 20" fill="none" xmlns="http://www.w3.org/2000/svg">
<path d="M10.0002 11.3241V11.3241C10.0002 10.512 9.34175 9.85355 8.52957 9.85355H4.608C2.98363 9.85355 1.66682 11.1704 1.66682 12.7947V12.7947C1.66682 13.8776 2.5447 14.7555 3.62761 14.7555H7.05898M9.01977 4.95159C9.01977 6.30523 7.92242 7.40257 6.56878 7.40257C5.21515 7.40257 4.1178 6.30523 4.1178 4.95159C4.1178 3.59795 5.21515 2.50061 6.56878 2.50061C7.92242 2.50061 9.01977 3.59795 9.01977 4.95159Z" stroke="#E4F0F0" stroke-width="1.25" stroke-linecap="round" stroke-linejoin="round"/>
<path d="M8.52978 15.7358C8.52978 14.1114 9.84659 12.7946 11.471 12.7946H15.3925C17.0169 12.7946 18.3337 14.1114 18.3337 15.7358V15.7358C18.3337 16.8187 17.4558 17.6966 16.3729 17.6966H10.4906C9.40765 17.6966 8.52978 16.8187 8.52978 15.7358V15.7358Z" stroke="#E4F0F0" stroke-width="1.25" stroke-linecap="round" stroke-linejoin="round"/>
<path d="M15.8827 7.89263C15.8827 9.24627 14.7854 10.3436 13.4317 10.3436C12.0781 10.3436 10.9808 9.24627 10.9808 7.89263C10.9808 6.53899 12.0781 5.44165 13.4317 5.44165C14.7854 5.44165 15.8827 6.53899 15.8827 7.89263Z" stroke="#E4F0F0" stroke-width="1.25" stroke-linecap="round" stroke-linejoin="round"/>
</svg>
