<svg width="20" height="20" viewBox="0 0 20 20" fill="none" xmlns="http://www.w3.org/2000/svg">
<path d="M9.99953 11.324V11.324C9.99953 10.5118 9.34113 9.85343 8.52894 9.85343H4.60738C2.98301 9.85343 1.6662 11.1702 1.6662 12.7946V12.7946C1.6662 13.8775 2.54407 14.7554 3.62698 14.7554H7.05836M9.01914 4.95147C9.01914 6.30511 7.9218 7.40245 6.56816 7.40245C5.21452 7.40245 4.11718 6.30511 4.11718 4.95147C4.11718 3.59783 5.21452 2.50049 6.56816 2.50049C7.9218 2.50049 9.01914 3.59783 9.01914 4.95147Z" stroke="#1B4A52" stroke-width="1.25" stroke-linecap="round" stroke-linejoin="round"/>
<path d="M8.52948 15.7355C8.52948 14.1112 9.84629 12.7943 11.4707 12.7943H15.3922C17.0166 12.7943 18.3334 14.1112 18.3334 15.7355V15.7355C18.3334 16.8184 17.4555 17.6963 16.3726 17.6963H10.4903C9.40735 17.6963 8.52948 16.8184 8.52948 15.7355V15.7355Z" stroke="#1B4A52" stroke-width="1.25" stroke-linecap="round" stroke-linejoin="round"/>
<path d="M15.8824 7.89239C15.8824 9.24603 14.7851 10.3434 13.4314 10.3434C12.0778 10.3434 10.9805 9.24603 10.9805 7.89239C10.9805 6.53875 12.0778 5.44141 13.4314 5.44141C14.7851 5.44141 15.8824 6.53875 15.8824 7.89239Z" stroke="#1B4A52" stroke-width="1.25" stroke-linecap="round" stroke-linejoin="round"/>
</svg>
