<svg width="12" height="12" viewBox="0 0 12 12" fill="none" xmlns="http://www.w3.org/2000/svg">
<path d="M4.48221 2.14171C4.97073 1.16466 5.21499 0.676143 5.54553 0.519377C5.83317 0.382955 6.16688 0.382955 6.45452 0.519377C6.78505 0.676144 7.02931 1.16467 7.51784 2.14171L7.70837 2.52277C7.8592 2.82444 7.93462 2.97528 8.04496 3.09077C8.14263 3.193 8.25975 3.27467 8.38944 3.33097C8.53595 3.39458 8.70356 3.41321 9.03878 3.45045L9.21175 3.46967C10.3828 3.59979 10.9683 3.66484 11.2329 3.93481C11.4628 4.16942 11.5711 4.49735 11.526 4.82275C11.4742 5.1972 11.0425 5.59806 10.1791 6.39979L9.99645 6.56935C9.70173 6.84302 9.55437 6.97986 9.46921 7.14567C9.39393 7.29224 9.35384 7.45432 9.35211 7.61907C9.35015 7.80547 9.41761 7.99772 9.55251 8.3822V8.3822C9.99287 9.63722 10.213 10.2647 10.069 10.6316C9.94409 10.9498 9.67344 11.1883 9.34203 11.2722C8.95997 11.3689 8.37405 11.0759 7.20222 10.49L6.75893 10.2684C6.48066 10.1292 6.34153 10.0597 6.1956 10.0323C6.06634 10.008 5.9337 10.008 5.80445 10.0323C5.65851 10.0597 5.51938 10.1292 5.24111 10.2684L4.79782 10.49C3.62599 11.0759 3.04007 11.3689 2.658 11.2722C2.3266 11.1883 2.05595 10.9498 1.93102 10.6316C1.78699 10.2647 2.00717 9.63722 2.44753 8.3822V8.3822C2.58243 7.99772 2.64989 7.80547 2.64793 7.61907C2.6462 7.45432 2.6061 7.29224 2.53083 7.14567C2.44567 6.97986 2.29831 6.84302 2.00359 6.56935L1.82098 6.39979C0.957584 5.59806 0.525883 5.1972 0.474012 4.82275C0.428935 4.49735 0.537191 4.16942 0.767143 3.93481C1.03175 3.66484 1.61726 3.59979 2.78829 3.46967L2.96126 3.45045C3.29648 3.41321 3.46409 3.39458 3.6106 3.33097C3.74029 3.27467 3.85741 3.193 3.95508 3.09077C4.06542 2.97528 4.14084 2.82445 4.29167 2.52277L4.48221 2.14171Z" stroke="white" stroke-width="0.795455" stroke-linecap="round" stroke-linejoin="round"/>
</svg>
