<svg width="20" height="21" viewBox="0 0 20 21" fill="none" xmlns="http://www.w3.org/2000/svg">
<path d="M11.6667 7.58333C11.6667 7.81345 11.4802 8 11.25 8C11.0199 8 10.8334 7.81345 10.8334 7.58333M11.6667 7.58333C11.6667 7.35321 11.4802 7.16667 11.25 7.16667C11.0199 7.16667 10.8334 7.35321 10.8334 7.58333M11.6667 7.58333H10.8334M15.8334 13.0001L15.9667 13.1001C16.9967 13.8725 17.5116 14.2588 17.9427 14.2498C18.3178 14.242 18.6696 14.0661 18.9009 13.7707C19.1667 13.4312 19.1667 12.7875 19.1667 11.5001V9.50007C19.1667 8.21262 19.1667 7.56889 18.9009 7.22942C18.6696 6.934 18.3178 6.75811 17.9427 6.75032C17.5116 6.74136 16.9966 7.1276 15.9667 7.90009L15.8334 8.00008V13.0001ZM7.50004 18H9.16671C11.5003 18 12.667 18 13.5583 17.5459C14.3423 17.1464 14.9798 16.509 15.3792 15.725C15.8334 14.8337 15.8334 13.6669 15.8334 11.3333V9.66667C15.8334 7.33311 15.8334 6.16634 15.3792 5.27504C14.9798 4.49103 14.3423 3.85361 13.5583 3.45414C12.667 3 11.5003 3 9.16671 3H7.50004C5.16649 3 3.99971 3 3.10841 3.45414C2.3244 3.85361 1.68699 4.49103 1.28751 5.27504C0.833374 6.16634 0.833374 7.33311 0.833374 9.66667V11.3333C0.833374 13.6669 0.833374 14.8337 1.28751 15.725C1.68699 16.509 2.3244 17.1464 3.10841 17.5459C3.99971 18 5.16649 18 7.50004 18Z" stroke="#444242" stroke-width="1.25" stroke-linecap="round" stroke-linejoin="round"/>
</svg>
