<svg width="25" height="24" viewBox="0 0 25 24" fill="none" xmlns="http://www.w3.org/2000/svg">
<path d="M14 4H8.9C6.65979 4 5.53968 4 4.68404 4.43597C3.93139 4.81947 3.31947 5.43139 2.93597 6.18404C2.5 7.03968 2.5 8.15979 2.5 10.4V15.6C2.5 17.8402 2.5 18.9603 2.93597 19.816C3.31947 20.5686 3.93139 21.1805 4.68404 21.564C5.53968 22 6.65979 22 8.9 22H14.1C16.3402 22 17.4603 22 18.316 21.564C19.0686 21.1805 19.6805 20.5686 20.064 19.816C20.5 18.9603 20.5 17.8402 20.5 15.6V10.5M20.5 1V4M20.5 4V7M20.5 4H17.5M20.5 4H23.5M13.5031 14.3313L11.9875 15.3417C11.1795 15.8804 10.7754 16.1497 10.4404 16.1297C10.1485 16.1123 9.87889 15.968 9.70249 15.7348C9.5 15.4671 9.5 14.9815 9.5 14.0104V11.9896C9.5 11.0185 9.5 10.5329 9.70249 10.2652C9.87889 10.032 10.1485 9.88772 10.4404 9.87029C10.7754 9.85029 11.1795 10.1196 11.9875 10.6583L13.5031 11.6687C14.1708 12.1138 14.5046 12.3364 14.6209 12.6169C14.7227 12.8622 14.7227 13.1378 14.6209 13.3831C14.5046 13.6636 14.1708 13.8862 13.5031 14.3313Z" stroke="#929090" stroke-width="1.5" stroke-linecap="round" stroke-linejoin="round"/>
</svg>
